<svg viewBox="0 0 100 100" fill="none" xmlns="http://www.w3.org/2000/svg">
    <defs>
        <linearGradient id="catGradient" x1="0%" y1="0%" x2="100%" y2="100%">
            <stop offset="0%" style="stop-color:#667eea;stop-opacity:1" />
            <stop offset="50%" style="stop-color:#764ba2;stop-opacity:1" />
            <stop offset="100%" style="stop-color:#8EC5FC;stop-opacity:1" />
        </linearGradient>
    </defs>
    
    <!-- Cat head silhouette -->
    <path d="M50 20 L35 10 L30 25 L20 35 Q15 50 20 65 Q25 75 35 80 L50 85 L65 80 Q75 75 80 65 Q85 50 80 35 L70 25 L65 10 Z" 
          fill="url(#catGradient)" opacity="0.95"/>
    
    <!-- Cat ears with AI circuit pattern -->
    <path d="M35 10 L30 25 L38 22 Z" fill="white" opacity="0.4"/>
    <path d="M65 10 L70 25 L62 22 Z" fill="white" opacity="0.4"/>
    
    <!-- AI Neural network nodes (eyes) -->
    <circle cx="42" cy="45" r="3.5" fill="white" opacity="0.95"/>
    <circle cx="58" cy="45" r="3.5" fill="white" opacity="0.95"/>
    <circle cx="50" cy="55" r="2.5" fill="white" opacity="0.85"/>
    <circle cx="40" cy="60" r="2" fill="white" opacity="0.75"/>
    <circle cx="60" cy="60" r="2" fill="white" opacity="0.75"/>
    <circle cx="35" cy="65" r="1.5" fill="white" opacity="0.6"/>
    <circle cx="65" cy="65" r="1.5" fill="white" opacity="0.6"/>
    
    <!-- AI Connection lines (neural network) -->
    <line x1="42" y1="45" x2="50" y2="55" stroke="white" stroke-width="1.2" opacity="0.6"/>
    <line x1="58" y1="45" x2="50" y2="55" stroke="white" stroke-width="1.2" opacity="0.6"/>
    <line x1="50" y1="55" x2="40" y2="60" stroke="white" stroke-width="1" opacity="0.5"/>
    <line x1="50" y1="55" x2="60" y2="60" stroke="white" stroke-width="1" opacity="0.5"/>
    <line x1="40" y1="60" x2="35" y2="65" stroke="white" stroke-width="0.8" opacity="0.4"/>
    <line x1="60" y1="60" x2="65" y2="65" stroke="white" stroke-width="0.8" opacity="0.4"/>
    
    <!-- Cat whiskers with tech style -->
    <line x1="30" y1="50" x2="18" y2="48" stroke="white" stroke-width="1.8" opacity="0.7" stroke-linecap="round"/>
    <line x1="30" y1="55" x2="18" y2="58" stroke="white" stroke-width="1.8" opacity="0.7" stroke-linecap="round"/>
    <line x1="70" y1="50" x2="82" y2="48" stroke="white" stroke-width="1.8" opacity="0.7" stroke-linecap="round"/>
    <line x1="70" y1="55" x2="82" y2="58" stroke="white" stroke-width="1.8" opacity="0.7" stroke-linecap="round"/>
    
    <!-- Cat nose (triangle) -->
    <path d="M50 62 L47 67 L53 67 Z" fill="white" opacity="0.85"/>
    
    <!-- Subtle circuit lines for AI theme -->
    <path d="M25 40 L28 40 L28 43" stroke="white" stroke-width="0.8" opacity="0.3" fill="none"/>
    <path d="M75 40 L72 40 L72 43" stroke="white" stroke-width="0.8" opacity="0.3" fill="none"/>
</svg>

