<svg viewBox="0 0 100 100" xmlns="http://www.w3.org/2000/svg">
    <defs>
        <linearGradient id="bg" x1="0%" y1="0%" x2="100%" y2="100%">
            <stop offset="0%" style="stop-color:#667eea" />
            <stop offset="100%" style="stop-color:#764ba2" />
        </linearGradient>
    </defs>
    
    <!-- Background -->
    <rect width="100" height="100" rx="20" fill="url(#bg)"/>
    
    <!-- Simple cat head -->
    <path d="M50 25 L35 15 L32 30 L25 40 Q20 50 25 65 Q30 72 40 77 L50 80 L60 77 Q70 72 75 65 Q80 50 75 40 L68 30 L65 15 Z" 
          fill="white" opacity="0.95"/>
    
    <!-- Eyes (AI nodes) -->
    <circle cx="42" cy="48" r="3" fill="#667eea"/>
    <circle cx="58" cy="48" r="3" fill="#667eea"/>
    
    <!-- Neural connections -->
    <line x1="42" y1="48" x2="50" y2="58" stroke="#764ba2" stroke-width="1.5" opacity="0.6"/>
    <line x1="58" y1="48" x2="50" y2="58" stroke="#764ba2" stroke-width="1.5" opacity="0.6"/>
    <circle cx="50" cy="58" r="2" fill="#764ba2" opacity="0.8"/>
    
    <!-- Nose -->
    <path d="M50 63 L47 67 L53 67 Z" fill="#667eea" opacity="0.8"/>
</svg>

